<svg width="1920" height="1080" viewBox="0 0 1920 1080" fill="none" xmlns="http://www.w3.org/2000/svg"><g opacity=".25"><g opacity=".5" stroke="#fff" clip-path="url(#clip0)"><path opacity=".519" d="M3154.61 2900.18l-991.44-1568.57c-44.62-70.62-99.21-110.62-155.82-114.21l-2865.085-181.8" stroke-width=".626"/><path opacity=".583" d="M3107.16 2392.88l-1102.11-1237.1c-48.49-54.42-104.14-76.89-159.22-64.29l-2822.39 645.79" stroke-width=".808"/><path opacity=".59" d="M3099.19 2336.24l-1112.8-1198.17c-48.83-52.57-104.52-73.1-159.36-58.75l-2814.09 736.21" stroke-width=".828"/><path opacity=".597" d="M3090.68 2279.61L1967.52 1120.75c-49.15-50.71-104.85-69.31-159.45-53.23l-2805.089 826.24" stroke-width=".848"/><path opacity=".604" d="M3081.61 2223L1948.45 1103.82c-49.46-48.85-105.17-65.52-159.49-47.72l-2795.4 915.87" stroke-width=".869"/><path opacity=".611" d="M3072.03 2166.43L1929.19 1087.28c-49.75-46.98-105.46-61.72-159.5-42.22l-2785.01 1005.07" stroke-width=".889"/><path opacity=".618" d="M3061.89 2109.93L1909.72 1071.15c-50.01-45.1-105.68-57.92-159.43-36.73l-2773.95 1093.81" stroke-width=".909"/><path opacity=".625" d="M3051.23 2053.51l-1161.15-998.08c-50.28-43.21-105.89-54.12-159.33-31.26l-2762.22 1182.08" stroke-width=".929"/><path opacity=".632" d="M3040.01 1997.19l-1169.77-957.06c-50.52-41.327-106.07-50.332-159.19-25.8l-2749.79 1269.85" stroke-width=".949"/><path opacity=".639" d="M3028.28 1940.98l-1178.05-915.74c-50.74-39.432-106.22-46.539-159-20.36l-2736.7 1357.11" stroke-width=".97"/><path opacity=".646" d="M3016 1884.9l-1185.97-874.11c-50.94-37.548-106.32-42.765-158.75-14.957L-1051.67 2439.67" stroke-width=".99"/><path opacity=".654" d="M3003.2 1828.97L1809.65 996.759c-51.12-35.648-106.38-38.983-158.46-9.563L-1057.34 2517.2" stroke-width="1.01"/><path opacity=".661" d="M2989.87 1773.21L1789.12 983.165c-51.29-33.748-106.43-35.211-158.13-4.194L-1062.48 2594.57" stroke-width="1.03"/><path opacity=".668" d="M2976 1717.62L1768.41 970.005c-51.44-31.847-106.44-31.447-157.76 1.15L-1067.09 2671.74" stroke-width="1.051"/><path opacity=".675" d="M2961.6 1662.24L1747.55 957.29c-51.58-29.948-106.42-27.693-157.35 6.467L-1071.18 2748.74" stroke-width="1.071"/><path opacity=".682" d="M2946.68 1607.08L1726.53 945.024c-51.69-28.047-106.36-23.951-156.89 11.753L-1074.73 2825.5" stroke-width="1.091"/><path opacity=".689" d="M2931.24 1552.15L1705.35 933.209c-51.79-26.149-106.26-20.223-156.38 17.01L-1077.77 2902.01" stroke-width="1.111"/><path opacity=".696" d="M2915.29 1497.48L1684.03 921.85c-51.87-24.248-106.14-16.505-155.82 22.238L-1080.28 2978.29" stroke-width="1.131"/><path opacity=".703" d="M2898.81 1443.07L1662.56 910.95c-51.93-22.356-105.99-12.806-155.23 27.427L-1082.28 3054.29" stroke-width="1.152"/><path opacity=".71" d="M2881.81 1388.94L1640.95 900.509c-51.99-20.463-105.8-9.118-154.59 32.587L-1083.77 3130.03" stroke-width="1.172"/><path opacity=".717" d="M2864.31 1335.12L1619.2 890.533c-52.01-18.571-105.59-5.449-153.91 37.708L-1084.73 3205.44" stroke-width="1.192"/><path opacity=".724" d="M2846.29 1281.61L1597.32 881.029c-52.03-16.686-105.33-1.798-153.19 42.79L-1085.19 3280.55" stroke-width="1.212"/><path opacity=".731" d="M2827.77 1228.44L1575.31 871.992c-52.02-14.804-105.04 1.836-152.42 47.836L-1085.15 3355.32" stroke-width="1.232"/><path opacity=".738" d="M2808.75 1175.62L1553.17 863.436c-52-12.931-104.73 5.448-151.61 52.839L-1084.6 3429.76" stroke-width="1.253"/><path opacity=".745" d="M2789.23 1123.17l-1258.3-267.815c-51.97-11.062-104.4 9.039-150.77 57.801L-1083.55 3503.82" stroke-width="1.273"/><path opacity=".753" d="M2769.2 1071.09L1508.56 847.751c-51.91-9.198-104.01 12.607-149.88 62.721L-1082 3577.47" stroke-width="1.293"/><path opacity=".76" d="M2748.68 1019.41l-1262.6-178.784c-51.84-7.341-103.61 16.154-148.95 67.595L-1079.96 3650.75" stroke-width="1.313"/><path opacity=".767" d="M2727.68 968.15L1463.51 833.99c-51.76-5.492-103.19 19.674-147.99 72.424L-1077.42 3723.62" stroke-width="1.333"/><path opacity=".774" d="M2706.17 917.322l-1265.36-89.48c-51.65-3.653-102.72 23.171-146.97 77.204L-1074.4 3796.04" stroke-width="1.354"/><path opacity=".781" d="M2684.2 866.932l-1266.16-44.755c-51.53-1.82-102.23 26.638-145.94 81.937l-2343 2963.906" stroke-width="1.374"/><path opacity=".788" d="M2661.75 817.009H1395.16c-51.4 0-101.71 30.078-144.86 86.619L-1066.92 3939.57" stroke-width="1.394"/><path opacity=".795" d="M2638.81 767.559L1372.19 812.33c-51.25 1.812-101.15 33.491-143.74 91.249L-1062.47 4010.61" stroke-width="1.414"/><path opacity=".802" d="M2615.41 718.597l-1266.28 89.545c-51.07 3.61-100.56 36.874-142.57 95.829l-2264.1 3177.189" stroke-width="1.434"/><path opacity=".809" d="M2591.55 670.143L1326.01 804.449c-50.9 5.4-99.97 40.227-141.4 100.354L-1052.15 4151.22" stroke-width="1.455"/><path opacity=".816" d="M2567.21 622.207L1302.8 801.252c-50.7 7.179-99.33 43.548-140.17 104.822L-1046.29 4220.75" stroke-width="1.475"/><path opacity=".823" d="M2542.43 574.811L1279.52 798.555c-50.49 8.945-98.67 46.837-138.91 109.236L-1039.98 4289.76" stroke-width="1.495"/><path opacity=".83" d="M2517.19 527.961L1256.17 796.352c-50.26 10.697-97.98 50.093-137.61 113.597L-1033.21 4358.21" stroke-width="1.515"/><path opacity=".837" d="M2491.49 481.672L1232.75 794.645c-50.01 12.436-97.26 53.314-136.28 117.896L-1026 4426.08" stroke-width="1.535"/><path opacity=".844" d="M2465.36 435.966L1209.28 793.441c-49.76 14.161-96.52 56.5-134.92 122.134L-1018.35 4493.39" stroke-width="1.556"/><path opacity=".852" d="M2438.8 390.849L1185.75 792.736c-49.48 15.871-95.75 59.649-133.52 126.314l-2062.48 3641.06" stroke-width="1.576"/><path opacity=".859" d="M2411.8 346.337L1162.18 792.528c-49.2 17.566-94.97 62.759-132.09 130.432l-2031.81 3703.27" stroke-width="1.596"/><path opacity=".866" d="M2384.36 302.446L1138.55 792.82c-48.89 19.246-94.14 65.834-130.63 134.49l-2000.685 3764.4" stroke-width="1.616"/><path opacity=".873" d="M2356.51 259.188L1114.89 793.616c-48.58 20.909-93.31 68.869-129.147 138.481L-983.385 4756.59" stroke-width="1.636"/><path opacity=".88" d="M2328.24 216.572L1091.18 794.904c-48.24 22.556-92.436 71.866-127.622 142.409L-973.588 4820.8" stroke-width="1.657"/><path opacity=".887" d="M2299.55 174.616L1067.44 796.694c-47.9 24.184-91.545 74.82-126.073 146.27L-963.38 4884.35" stroke-width="1.677"/><path opacity=".894" d="M2270.45 133.335L1043.67 798.984c-47.538 25.799-90.629 77.739-124.493 150.069L-952.763 4947.24" stroke-width="1.697"/><path opacity=".901" d="M2240.96 92.734L1019.88 801.768c-47.172 27.391-89.697 80.611-122.893 153.797L-941.748 5009.42" stroke-width="1.717"/><path opacity=".908" d="M2211.08 52.836L996.067 805.056c-46.788 28.966-88.739 83.439-121.26 157.456L-930.333 5070.92" stroke-width="1.737"/><path opacity=".915" d="M2180.8 13.639L972.235 808.831c-46.391 30.523-87.758 86.227-119.6 161.049L-918.531 5131.73" stroke-width="1.758"/><path opacity=".922" d="M2150.15-24.831L948.389 813.108c-45.98 32.059-86.756 88.97-117.914 164.573L-906.347 5191.8" stroke-width="1.778"/><path opacity=".929" d="M2119.11-62.568L924.533 817.88c-45.556 33.577-85.73 91.667-116.202 168.023L-893.784 5251.15" stroke-width="1.798"/><path opacity=".936" d="M2087.69-99.561L900.675 823.138c-45.122 35.076-84.688 94.322-114.468 171.407L-880.849 5309.74" stroke-width="1.818"/><path opacity=".943" d="M2055.92-135.801L876.811 828.889c-44.674 36.55-83.623 96.927-112.708 174.721L-867.552 5367.57" stroke-width="1.838"/><path opacity=".951" d="M2023.79-171.269L852.956 835.132c-44.215 38.005-82.539 99.489-110.925 177.958L-853.891 5424.62" stroke-width="1.859"/><path opacity=".958" d="M1991.31-205.961L829.106 841.86c-43.744 39.439-81.437 102.001-109.121 181.12L-839.88 5480.92" stroke-width="1.879"/><path opacity=".965" d="M1958.47-239.859L805.265 849.08c-43.261 40.851-80.314 104.465-107.293 184.21L-825.524 5536.43" stroke-width="1.899"/><path opacity=".972" d="M1925.29-272.959L781.439 856.778C738.671 899.019 702.263 963.662 675.993 1044L-810.828 5591.13" stroke-width="1.919"/><path opacity=".979" d="M1891.79-305.251L757.633 864.959c-42.262 43.607-78.017 109.252-103.577 190.161l-1449.853 4589.9" stroke-width="1.939"/><path opacity=".986" d="M1857.96-336.725L733.849 873.617c-41.748 44.95-76.842 111.57-101.688 193.033L-780.44 5698.08" stroke-width="1.96"/><path opacity=".993" d="M1823.81-367.365L710.091 882.754c-41.222 46.273-75.651 113.84-99.782 195.826L-764.765 5750.33" stroke-width="1.98"/><path opacity=".5" d="M1789.35-397.162L686.364 892.369c-40.685 47.568-74.444 116.061-97.857 198.531L-748.776 5801.73" stroke-width="2"/></g></g><defs><clipPath id="clip0"><path fill="#fff" d="M0 0h1920v1080H0z"/></clipPath></defs></svg>