<svg width="905" height="185" viewBox="0 0 905 185" fill="none" xmlns="http://www.w3.org/2000/svg"><path d="M119.608 143.664H50.556l-12.2 34.648H2L65.44 8h39.284l63.196 170.312h-36.356l-11.956-34.648zm-9.272-26.108L84.96 44.844l-25.376 72.712h50.752zm122.757-76.128c16.429 0 29.605 4.148 39.528 12.444 9.922 8.296 16.104 19.357 18.544 33.184h-32.208c-1.302-6.507-4.23-11.712-8.784-15.616-4.555-3.904-10.492-5.856-17.812-5.856-5.856 0-10.411 1.383-13.664 4.148-3.254 2.765-4.88 6.507-4.88 11.224 0 3.741 1.301 6.75 3.904 9.028 2.602 2.277 5.856 4.067 9.76 5.368 3.904 1.301 9.516 2.847 16.836 4.636 10.248 2.277 18.544 4.717 24.888 7.32 6.506 2.44 12.037 6.425 16.592 11.956 4.717 5.368 7.076 12.688 7.076 21.96 0 11.549-4.555 20.903-13.664 28.06-8.947 7.157-21.066 10.736-36.356 10.736-17.568 0-31.639-3.904-42.212-11.712-10.574-7.971-16.999-19.276-19.276-33.916h32.94c.813 6.669 3.741 11.956 8.784 15.86 5.042 3.741 11.63 5.612 19.764 5.612 5.856 0 10.329-1.383 13.42-4.148 3.09-2.928 4.636-6.669 4.636-11.224 0-3.904-1.383-7.076-4.148-9.516-2.603-2.44-5.938-4.311-10.004-5.612-3.904-1.301-9.516-2.847-16.836-4.636-10.086-2.277-18.3-4.555-24.644-6.832-6.182-2.44-11.55-6.263-16.104-11.468-4.392-5.205-6.588-12.363-6.588-21.472 0-11.712 4.473-21.228 13.42-28.548 8.946-7.32 21.309-10.98 37.088-10.98zm132.008 0c16.429 0 29.605 4.148 39.528 12.444 9.922 8.296 16.104 19.357 18.544 33.184h-32.208c-1.302-6.507-4.23-11.712-8.784-15.616-4.555-3.904-10.492-5.856-17.812-5.856-5.856 0-10.411 1.383-13.664 4.148-3.254 2.765-4.88 6.507-4.88 11.224 0 3.741 1.301 6.75 3.904 9.028 2.602 2.277 5.856 4.067 9.76 5.368 3.904 1.301 9.516 2.847 16.836 4.636 10.248 2.277 18.544 4.717 24.888 7.32 6.506 2.44 12.037 6.425 16.592 11.956 4.717 5.368 7.076 12.688 7.076 21.96 0 11.549-4.555 20.903-13.664 28.06-8.947 7.157-21.066 10.736-36.356 10.736-17.568 0-31.639-3.904-42.212-11.712-10.574-7.971-16.999-19.276-19.276-33.916h32.94c.813 6.669 3.741 11.956 8.784 15.86 5.042 3.741 11.63 5.612 19.764 5.612 5.856 0 10.329-1.383 13.42-4.148 3.09-2.928 4.636-6.669 4.636-11.224 0-3.904-1.383-7.076-4.148-9.516-2.603-2.44-5.938-4.311-10.004-5.612-3.904-1.301-9.516-2.847-16.836-4.636-10.086-2.277-18.3-4.555-24.644-6.832-6.182-2.44-11.55-6.263-16.104-11.468-4.392-5.205-6.588-12.363-6.588-21.472 0-11.712 4.473-21.228 13.42-28.548 8.946-7.32 21.309-10.98 37.088-10.98zm138.351 0c11.387 0 21.147 2.684 29.28 8.052 8.134 5.368 13.908 12.607 17.324 21.716v-28.06h34.16v135.176h-34.16v-28.304c-3.416 9.109-9.19 16.429-17.324 21.96-8.133 5.368-17.893 8.052-29.28 8.052-11.386 0-21.634-2.765-30.744-8.296-9.109-5.531-16.266-13.501-21.472-23.912-5.042-10.573-7.564-22.936-7.564-37.088 0-14.152 2.522-26.433 7.564-36.844 5.206-10.573 12.363-18.625 21.472-24.156 9.11-5.53 19.358-8.296 30.744-8.296zm10.736 30.012c-10.736 0-19.357 3.497-25.864 10.492-6.506 6.995-9.76 16.592-9.76 28.792 0 12.2 3.254 21.797 9.76 28.792 6.507 6.832 15.128 10.248 25.864 10.248 10.411 0 18.951-3.497 25.62-10.492 6.832-7.157 10.248-16.673 10.248-28.548 0-12.037-3.416-21.553-10.248-28.548-6.669-7.157-15.209-10.736-25.62-10.736zm181.727-30.256c15.616 0 28.06 5.124 37.332 15.372 9.272 10.248 13.908 24.644 13.908 43.188v78.568h-34.16v-74.664c0-10.736-2.765-19.032-8.296-24.888-5.531-6.019-13.095-9.028-22.692-9.028-9.76 0-17.568 3.172-23.424 9.516-5.856 6.344-8.784 15.453-8.784 27.328v71.736h-34.404V43.136h34.404V70.22c3.579-9.11 9.435-16.185 17.568-21.228 8.296-5.205 17.812-7.808 28.548-7.808zm183.185-20.5l12.2 22.204-31.964 11.468L891.3 65.58l-12.932 22.936-26.108-21.96 5.612 33.916h-25.376l5.368-33.916-26.352 22.204-13.42-23.18 31.964-11.468-31.476-11.224 12.444-22.204 26.84 21.472-5.612-33.916h25.62l-5.612 33.916 26.84-21.472z" fill="#fff"/></svg>