<svg width="152" height="35" viewBox="0 0 152 35" fill="none" xmlns="http://www.w3.org/2000/svg">
<path d="M147.815 34.44C147.228 34.44 146.73 34.2346 146.319 33.824C145.967 33.3546 145.791 32.8266 145.791 32.24C145.791 31.36 146.114 30.6266 146.759 30.04C147.463 29.4533 148.226 29.16 149.047 29.16C149.692 29.16 150.191 29.3946 150.543 29.864C150.895 30.2746 151.071 30.7733 151.071 31.36C151.071 32.24 150.719 32.9733 150.015 33.56C149.37 34.1466 148.636 34.44 147.815 34.44Z" fill="white"/>
<path d="M128.704 34.528C127.003 34.528 125.653 34 124.656 32.944C123.717 31.888 123.248 30.568 123.248 28.984C123.248 28.2213 123.395 27.3413 123.688 26.344C124.509 23.7627 125.8 21.2107 127.56 18.688C129.379 16.1067 130.875 13.5547 132.048 11.032C132.459 10.2107 132.664 9.47734 132.664 8.83201C132.664 8.18668 132.459 7.71734 132.048 7.42401C131.696 7.072 131.256 6.89601 130.728 6.89601C129.965 6.89601 128.997 7.21867 127.824 7.86401C126.709 8.45068 125.419 9.59467 123.952 11.296C123.072 12.352 122.075 13.6427 120.96 15.168C119.845 16.6933 118.936 18.072 118.232 19.304C117.059 21.2987 116.003 23.3227 115.064 25.376C114.125 27.3707 113.304 29.2187 112.6 30.92C112.013 32.2693 111.309 33.1493 110.488 33.56C109.667 33.912 108.875 34.0587 108.112 34C107.349 33.9413 106.763 33.9413 106.352 34C107.995 30.7733 109.608 27.3707 111.192 23.792C112.776 20.2133 114.125 16.6347 115.24 13.056C115.768 11.4133 116.208 9.82934 116.56 8.30401C116.912 6.72001 117.059 5.69334 117 5.22401V5.04801C117 4.57867 117.235 4.46134 117.704 4.69601C118.467 5.10667 118.995 5.72267 119.288 6.54401C119.581 7.30667 119.728 8.18667 119.728 9.18401C119.728 10.2987 119.581 11.5013 119.288 12.792C118.995 14.024 118.643 15.1387 118.232 16.136C118.995 15.08 119.816 14.024 120.696 12.968C121.576 11.8533 122.544 10.7973 123.6 9.80001C124.832 8.56801 126.152 7.51201 127.56 6.63201C128.968 5.69334 130.493 5.22401 132.136 5.22401C133.72 5.22401 134.864 5.57601 135.568 6.28001C136.331 6.98401 136.712 7.92268 136.712 9.09601C136.712 10.328 136.36 11.736 135.656 13.32C134.893 15.1387 133.955 16.9573 132.84 18.776C131.784 20.5947 130.816 22.3547 129.936 24.056C129.76 24.408 129.467 24.9653 129.056 25.728C128.704 26.432 128.381 27.224 128.088 28.104C127.971 28.5147 127.853 28.9547 127.736 29.424C127.619 29.8347 127.56 30.2747 127.56 30.744C127.56 31.3307 127.677 31.888 127.912 32.416C128.205 32.8853 128.733 33.12 129.496 33.12C130.493 33.12 131.432 32.7973 132.312 32.152C133.251 31.448 134.043 30.7147 134.688 29.952C136.037 28.4853 137.269 26.872 138.384 25.112C139.557 23.2933 140.701 21.3867 141.816 19.392C141.992 19.1573 142.109 19.04 142.168 19.04C142.403 19.04 142.52 19.304 142.52 19.832C142.52 20.184 142.461 20.448 142.344 20.624C141.288 22.56 140.173 24.4667 139 26.344C137.827 28.1627 136.389 29.9227 134.688 31.624C133.925 32.3867 133.045 33.0613 132.048 33.648C131.051 34.2347 129.936 34.528 128.704 34.528Z" fill="white"/>
<path d="M99.8029 34.616C97.9256 34.616 96.6349 34.0293 95.9309 32.856C95.2269 31.624 94.8749 30.2747 94.8749 28.808C94.8749 28.5147 94.9043 28.016 94.9629 27.312C95.0803 26.5493 95.1976 25.8453 95.3149 25.2C94.4936 26.3146 93.4963 27.5466 92.3229 28.896C91.2083 30.2453 90.0643 31.3893 88.8909 32.328C87.0136 33.8533 85.3123 34.616 83.7869 34.616C82.3203 34.616 81.1763 34 80.3549 32.768C79.5923 31.536 79.2109 29.9813 79.2109 28.104C79.2109 25.6986 79.7389 23.264 80.7949 20.8C81.8509 18.336 83.2296 16.0187 84.9309 13.848C86.6909 11.6187 88.6269 9.71198 90.7389 8.12798C91.9709 7.24798 93.4669 6.54398 95.2269 6.01598C97.0456 5.42932 98.8643 5.13599 100.683 5.13599C102.736 5.13599 104.526 5.45865 106.051 6.10398C107.635 6.69065 108.72 7.54132 109.307 8.65598C108.075 10.24 106.814 12.2053 105.523 14.552C104.232 16.84 103.118 18.9227 102.179 20.8C101.534 22.0907 100.83 23.704 100.067 25.64C99.3043 27.5173 98.9229 29.1307 98.9229 30.48C98.9229 31.0667 99.0696 31.6533 99.3629 32.24C99.6563 32.8266 100.214 33.12 101.035 33.12C101.974 33.12 102.883 32.768 103.763 32.064C104.643 31.36 105.376 30.656 105.963 29.952C107.312 28.4853 108.544 26.872 109.659 25.112C110.774 23.352 111.888 21.4746 113.003 19.48C113.179 19.2453 113.355 19.128 113.531 19.128C113.766 19.128 113.883 19.304 113.883 19.656C113.883 19.9493 113.824 20.184 113.707 20.36C112.71 22.296 111.595 24.232 110.363 26.168C109.131 28.104 107.664 29.9227 105.963 31.624C105.142 32.4453 104.174 33.1493 103.059 33.736C101.944 34.3227 100.859 34.616 99.8029 34.616ZM85.7229 31.888C86.8376 31.888 88.0403 31.3013 89.3309 30.128C90.6803 28.896 91.9709 27.4293 93.2029 25.728C94.4936 23.968 95.6376 22.296 96.6349 20.712C97.6909 19.0693 98.5123 17.808 99.0989 16.928C100.331 14.992 101.475 13.3786 102.531 12.088C103.587 10.7973 105.23 9.79999 107.459 9.09599C107.576 9.09599 107.664 9.09599 107.723 9.09599C107.84 9.03732 107.958 9.00798 108.075 9.00798C107.547 8.18665 106.667 7.57065 105.435 7.15998C104.203 6.74931 103 6.54398 101.827 6.54398C100.008 6.54398 98.2483 7.04265 96.5469 8.03999C94.8456 9.03732 93.2909 10.2986 91.8829 11.824C90.5336 13.408 89.2136 15.1386 87.9229 17.016C86.6323 18.8933 85.5763 20.8 84.7549 22.736C83.9923 24.672 83.6109 26.52 83.6109 28.28C83.6109 29.2187 83.7576 30.0693 84.0509 30.832C84.4029 31.536 84.9603 31.888 85.7229 31.888Z" fill="white"/>
<path d="M59.888 34.704C58.656 34.704 57.512 34.4693 56.456 34C55.4586 33.472 54.6373 32.592 53.992 31.36C53.5226 30.304 53.288 29.16 53.288 27.928C53.288 26.6373 53.5226 25.4347 53.992 24.32C54.4613 23.3227 54.9893 22.4427 55.576 21.68C56.1626 20.9173 56.808 20.4773 57.512 20.36C58.04 19.1867 58.832 17.632 59.888 15.696C61.0026 13.76 62.2346 11.824 63.584 9.888C64.992 7.952 66.312 6.39733 67.544 5.224C67.8373 4.93067 68.336 4.46133 69.04 3.81599C69.8026 3.11199 70.6533 2.43733 71.592 1.792C72.5893 1.14667 73.4986 0.765336 74.32 0.648003C74.496 0.589335 74.7306 0.559998 75.024 0.559998C75.728 0.559998 76.256 0.735997 76.608 1.088C76.96 1.44 77.136 1.85067 77.136 2.32C77.136 2.78933 76.96 3.25866 76.608 3.728C76.256 4.19733 75.6986 4.57866 74.936 4.87199C74.6426 4.93066 74.2026 5.01867 73.616 5.136C73.088 5.25334 72.296 5.312 71.24 5.312C70.8293 5.89866 70.624 6.72 70.624 7.776C70.624 8.94933 70.8 10.2693 71.152 11.736C71.5626 13.2027 71.944 14.64 72.296 16.048C72.7066 17.3973 72.912 18.5413 72.912 19.48C73.0293 21.6507 72.6773 23.8507 71.856 26.08C71.0933 28.2507 69.8613 30.0987 68.16 31.624L66.928 32.504C67.104 32.5627 67.28 32.6213 67.456 32.68C67.632 32.68 67.808 32.68 67.984 32.68C68.9813 32.68 70.096 32.3867 71.328 31.8C72.56 31.1547 73.6453 30.3627 74.584 29.424C75.992 28.0747 77.1946 26.6373 78.192 25.112C79.248 23.5867 80.216 22.0027 81.096 20.36C81.1546 20.1253 81.3013 20.008 81.536 20.008C81.8293 20.008 81.976 20.2427 81.976 20.712C81.976 20.9467 81.888 21.2107 81.712 21.504C80.832 23.1467 79.7466 24.8773 78.456 26.696C77.224 28.456 75.9333 29.952 74.584 31.184C73.528 32.1227 72.384 32.8267 71.152 33.296C69.9786 33.7067 68.9813 33.912 68.16 33.912C67.5733 33.912 67.104 33.8533 66.752 33.736C66.4 33.6187 66.0773 33.4427 65.784 33.208C64.9626 33.6187 64.024 33.9707 62.968 34.264C61.9706 34.5573 60.944 34.704 59.888 34.704ZM63.232 32.416C64.4053 31.5947 65.3146 30.5387 65.96 29.248C66.664 27.9573 67.192 26.5787 67.544 25.112C68.0133 23.352 68.2773 21.5333 68.336 19.656C68.4533 17.7787 68.512 16.0773 68.512 14.552V11.472C68.512 10.24 68.6586 8.97866 68.952 7.688C69.304 6.39733 69.656 5.60533 70.008 5.312C69.128 5.664 68.16 6.456 67.104 7.688C66.048 8.86133 64.992 10.2693 63.936 11.912C62.88 13.496 61.912 15.0507 61.032 16.576C60.2106 18.1013 59.5653 19.3627 59.096 20.36C60.2106 20.3013 60.9733 20.624 61.384 21.328C61.7946 21.9733 61.912 22.4427 61.736 22.736C61.2666 22.6187 60.944 22.56 60.768 22.56C59.888 22.56 59.0666 22.8827 58.304 23.528C57.5413 24.1147 56.896 24.9947 56.368 26.168C55.84 27.2827 55.576 28.368 55.576 29.424C55.576 30.832 55.9866 31.8587 56.808 32.504C57.6293 33.1493 58.5973 33.472 59.712 33.472C61.0026 33.472 62.176 33.12 63.232 32.416Z" fill="white"/>
<path d="M36.3411 34.704C35.1091 34.704 33.9651 34.4693 32.9091 34C31.9118 33.472 31.0904 32.592 30.4451 31.36C29.9758 30.304 29.7411 29.16 29.7411 27.928C29.7411 26.6373 29.9758 25.4347 30.4451 24.32C30.9144 23.3227 31.4424 22.4427 32.0291 21.68C32.6158 20.9173 33.2611 20.4773 33.9651 20.36C34.4931 19.1867 35.2851 17.632 36.3411 15.696C37.4558 13.76 38.6878 11.824 40.0371 9.888C41.4451 7.952 42.7651 6.39733 43.9971 5.224C44.2904 4.93067 44.7891 4.46133 45.4931 3.81599C46.2558 3.11199 47.1064 2.43733 48.0451 1.792C49.0424 1.14667 49.9518 0.765336 50.7731 0.648003C50.9491 0.589335 51.1838 0.559998 51.4771 0.559998C52.1811 0.559998 52.7091 0.735997 53.0611 1.088C53.4131 1.44 53.5891 1.85067 53.5891 2.32C53.5891 2.78933 53.4131 3.25866 53.0611 3.728C52.7091 4.19733 52.1518 4.57866 51.3891 4.87199C51.0958 4.93066 50.6558 5.01867 50.0691 5.136C49.5411 5.25334 48.7491 5.312 47.6931 5.312C47.2824 5.89866 47.0771 6.72 47.0771 7.776C47.0771 8.94933 47.2531 10.2693 47.6051 11.736C48.0158 13.2027 48.3971 14.64 48.7491 16.048C49.1598 17.3973 49.3651 18.5413 49.3651 19.48C49.4824 21.6507 49.1304 23.8507 48.3091 26.08C47.5464 28.2507 46.3144 30.0987 44.6131 31.624L43.3811 32.504C43.5571 32.5627 43.7331 32.6213 43.9091 32.68C44.0851 32.68 44.2611 32.68 44.4371 32.68C45.4344 32.68 46.5491 32.3867 47.7811 31.8C49.0131 31.1547 50.0984 30.3627 51.0371 29.424C52.4451 28.0747 53.6478 26.6373 54.6451 25.112C55.7011 23.5867 56.6691 22.0027 57.5491 20.36C57.6078 20.1253 57.7544 20.008 57.9891 20.008C58.2824 20.008 58.4291 20.2427 58.4291 20.712C58.4291 20.9467 58.3411 21.2107 58.1651 21.504C57.2851 23.1467 56.1998 24.8773 54.9091 26.696C53.6771 28.456 52.3864 29.952 51.0371 31.184C49.9811 32.1227 48.8371 32.8267 47.6051 33.296C46.4318 33.7067 45.4344 33.912 44.6131 33.912C44.0264 33.912 43.5571 33.8533 43.2051 33.736C42.8531 33.6187 42.5304 33.4427 42.2371 33.208C41.4158 33.6187 40.4771 33.9707 39.4211 34.264C38.4238 34.5573 37.3971 34.704 36.3411 34.704ZM39.6851 32.416C40.8584 31.5947 41.7678 30.5387 42.4131 29.248C43.1171 27.9573 43.6451 26.5787 43.9971 25.112C44.4664 23.352 44.7304 21.5333 44.7891 19.656C44.9064 17.7787 44.9651 16.0773 44.9651 14.552V11.472C44.9651 10.24 45.1118 8.97866 45.4051 7.688C45.7571 6.39733 46.1091 5.60533 46.4611 5.312C45.5811 5.664 44.6131 6.456 43.5571 7.688C42.5011 8.86133 41.4451 10.2693 40.3891 11.912C39.3331 13.496 38.3651 15.0507 37.4851 16.576C36.6638 18.1013 36.0184 19.3627 35.5491 20.36C36.6638 20.3013 37.4264 20.624 37.8371 21.328C38.2478 21.9733 38.3651 22.4427 38.1891 22.736C37.7198 22.6187 37.3971 22.56 37.2211 22.56C36.3411 22.56 35.5198 22.8827 34.7571 23.528C33.9944 24.1147 33.3491 24.9947 32.8211 26.168C32.2931 27.2827 32.0291 28.368 32.0291 29.424C32.0291 30.832 32.4398 31.8587 33.2611 32.504C34.0824 33.1493 35.0504 33.472 36.1651 33.472C37.4558 33.472 38.6291 33.12 39.6851 32.416Z" fill="white"/>
<path d="M21.2559 34.616C19.3786 34.616 18.0879 34.0293 17.3839 32.856C16.6799 31.624 16.3279 30.2747 16.3279 28.808C16.3279 28.5147 16.3573 28.016 16.4159 27.312C16.5333 26.5493 16.6506 25.8453 16.7679 25.2C15.9466 26.3146 14.9493 27.5466 13.7759 28.896C12.6613 30.2453 11.5173 31.3893 10.3439 32.328C8.46661 33.8533 6.76527 34.616 5.23994 34.616C3.77327 34.616 2.62927 34 1.80794 32.768C1.04527 31.536 0.66394 29.9813 0.66394 28.104C0.66394 25.6986 1.19194 23.264 2.24794 20.8C3.30394 18.336 4.68261 16.0187 6.38394 13.848C8.14394 11.6187 10.0799 9.71198 12.1919 8.12798C13.4239 7.24798 14.9199 6.54398 16.6799 6.01598C18.4986 5.42932 20.3173 5.13599 22.1359 5.13599C24.1893 5.13599 25.9786 5.45865 27.5039 6.10398C29.0879 6.69065 30.1733 7.54132 30.7599 8.65598C29.5279 10.24 28.2666 12.2053 26.9759 14.552C25.6853 16.84 24.5706 18.9227 23.6319 20.8C22.9866 22.0907 22.2826 23.704 21.5199 25.64C20.7573 27.5173 20.3759 29.1307 20.3759 30.48C20.3759 31.0667 20.5226 31.6533 20.8159 32.24C21.1093 32.8266 21.6666 33.12 22.4879 33.12C23.4266 33.12 24.3359 32.768 25.2159 32.064C26.0959 31.36 26.8293 30.656 27.4159 29.952C28.7653 28.4853 29.9973 26.872 31.1119 25.112C32.2266 23.352 33.3413 21.4746 34.4559 19.48C34.6319 19.2453 34.8079 19.128 34.9839 19.128C35.2186 19.128 35.3359 19.304 35.3359 19.656C35.3359 19.9493 35.2773 20.184 35.1599 20.36C34.1626 22.296 33.0479 24.232 31.8159 26.168C30.5839 28.104 29.1173 29.9227 27.4159 31.624C26.5946 32.4453 25.6266 33.1493 24.5119 33.736C23.3973 34.3227 22.3119 34.616 21.2559 34.616ZM7.17594 31.888C8.29061 31.888 9.49327 31.3013 10.7839 30.128C12.1333 28.896 13.4239 27.4293 14.6559 25.728C15.9466 23.968 17.0906 22.296 18.0879 20.712C19.1439 19.0693 19.9653 17.808 20.5519 16.928C21.7839 14.992 22.9279 13.3786 23.9839 12.088C25.0399 10.7973 26.6826 9.79999 28.9119 9.09599C29.0293 9.09599 29.1173 9.09599 29.1759 9.09599C29.2933 9.03732 29.4106 9.00798 29.5279 9.00798C28.9999 8.18665 28.1199 7.57065 26.8879 7.15998C25.6559 6.74931 24.4533 6.54398 23.2799 6.54398C21.4613 6.54398 19.7013 7.04265 17.9999 8.03999C16.2986 9.03732 14.7439 10.2986 13.3359 11.824C11.9866 13.408 10.6666 15.1386 9.37594 17.016C8.08527 18.8933 7.02927 20.8 6.20794 22.736C5.44527 24.672 5.06394 26.52 5.06394 28.28C5.06394 29.2187 5.21061 30.0693 5.50394 30.832C5.85594 31.536 6.41327 31.888 7.17594 31.888Z" fill="white"/>
</svg>
